<svg xmlns="http://www.w3.org/2000/svg" viewBox="0 0 120 120" role="img" aria-label="Puppy with bow avatar">
  <circle cx="60" cy="60" r="54" fill="#fff7fb" stroke="#d946ef" stroke-width="4"/>
  <circle cx="60" cy="60" r="40" fill="#ffffff"/>
  <path d="M46 28c-8 10-12 20-12 32 0 16 10 28 26 28s26-12 26-28c0-12-4-22-12-32" fill="#fff" stroke="#d946ef" stroke-width="3"/>
  <path d="M38 30c-6-6-12-2-12 4 0 7 6 10 12 10zm44 0c6-6 12-2 12 4 0 7-6 10-12 10z" fill="#d946ef"/>
  <circle cx="46" cy="58" r="6" fill="#111827"/>
  <circle cx="74" cy="58" r="6" fill="#111827"/>
  <path d="M58 72c1 3 3 5 4 5s3-2 4-5" stroke="#d946ef" stroke-width="4" stroke-linecap="round" fill="none"/>
  <path d="M52 78c3 2 8 3 8 3s5-1 8-3" stroke="#d946ef" stroke-width="4" stroke-linecap="round" fill="none"/>
  <path d="M48 24c10 0 12 4 12 8s-2 8-12 8c-6 0-10-4-10-8s4-8 10-8zm24 0c-10 0-12 4-12 8s2 8 12 8c6 0 10-4 10-8s-4-8-10-8z" fill="#e11d48" stroke="#9f1239" stroke-width="3"/>
  <circle cx="60" cy="64" r="3" fill="#111827"/>
  <path d="M56 68c2 2 6 2 8 0" stroke="#111827" stroke-width="3" stroke-linecap="round"/>
</svg>
