<svg width="160" height="160" viewBox="0 0 160 160" fill="none" xmlns="http://www.w3.org/2000/svg">
  <defs>
    <linearGradient id="bg" x1="20" y1="20" x2="140" y2="140" gradientUnits="userSpaceOnUse">
      <stop stop-color="#FFB6E6" />
      <stop offset="1" stop-color="#FF6FA5" />
    </linearGradient>
  </defs>
  <circle cx="80" cy="80" r="74" fill="url(#bg)" />
  <circle cx="74" cy="70" r="34" fill="#fff" />
  <circle cx="64" cy="65" r="6" fill="#FF6FA5" />
  <circle cx="88" cy="65" r="6" fill="#FF6FA5" />
  <path d="M58 85C65 93 83 93 90 85" stroke="#FF6FA5" stroke-width="6" stroke-linecap="round" />
  <path d="M112 128C96 120 80 122 68 130C63 133 56 132 52 128C43 119 32 110 32 95C32 73 53 56 80 56C107 56 128 73 128 95C128 107 120 116 112 128Z" fill="#fff" opacity="0.92" />
  <circle cx="120" cy="52" r="18" fill="#FFF8FD" stroke="#FF6FA5" stroke-width="4" />
  <path d="M114 48H126" stroke="#FF6FA5" stroke-width="4" stroke-linecap="round" />
  <path d="M114 56H126" stroke="#FF6FA5" stroke-width="4" stroke-linecap="round" />
</svg>
