<svg xmlns="http://www.w3.org/2000/svg" viewBox="0 0 120 120" role="img" aria-label="Bunny nightcap avatar">
  <circle cx="60" cy="60" r="54" fill="#f8fbff" stroke="#7c3aed" stroke-width="4"/>
  <circle cx="60" cy="60" r="40" fill="#ffffff"/>
  <path d="M38 26c8 0 14 6 14 14 0 12-10 18-14 18s-12-6-12-16c0-10 6-16 12-16z" fill="#e0f2fe" stroke="#7c3aed" stroke-width="3"/>
  <path d="M82 26c-8 0-14 6-14 14 0 12 10 18 14 18s12-6 12-16c0-10-6-16-12-16z" fill="#e0f2fe" stroke="#7c3aed" stroke-width="3"/>
  <path d="M44 24c8-6 24-8 36 4 6 6 6 14 0 22l-6-6c-6 3-12 4-18 4-8 0-14-2-18-6z" fill="#c7d2fe" stroke="#7c3aed" stroke-width="3"/>
  <circle cx="46" cy="62" r="6" fill="#111827"/>
  <circle cx="74" cy="62" r="6" fill="#111827"/>
  <path d="M58 74c1 3 3 5 4 5s3-2 4-5" stroke="#7c3aed" stroke-width="4" stroke-linecap="round" fill="none"/>
  <path d="M54 78c3 2 8 3 8 3s5-1 8-3" stroke="#7c3aed" stroke-width="4" stroke-linecap="round" fill="none"/>
  <path d="M76 18c10 0 18 8 18 18 0 8-6 14-12 16-3-6-6-12-12-18 0-6 2-12 6-16z" fill="#fbb6ce" stroke="#7c3aed" stroke-width="3"/>
  <circle cx="88" cy="20" r="5" fill="#7c3aed"/>
  <circle cx="88" cy="20" r="3" fill="#e0e7ff"/>
  <path d="M60 68c-2 1-3 3-3 5s1 3 3 3 3-1 3-3-1-4-3-5z" fill="#111827"/>
</svg>
