<svg xmlns="http://www.w3.org/2000/svg" viewBox="0 0 120 120" role="img" aria-label="Puppy avatar">
  <circle cx="60" cy="60" r="54" fill="#fff7f3" stroke="#111827" stroke-width="4"/>
  <circle cx="60" cy="60" r="42" fill="#fff"/>
  <path d="M40 35c-6-10-20-8-18 4 2 12 12 16 20 10z" fill="#0f172a"/>
  <path d="M85 35c6-10 20-8 18 4-2 12-12 16-20 10z" fill="#111827"/>
  <path d="M72 22c-2 6-3 12-3 18 0 12 6 18 12 18 7 0 12-6 12-15 0-12-7-19-21-21z" fill="#111827"/>
  <path d="M36 72c5 4 12 8 24 8s19-4 24-8" stroke="#111827" stroke-width="4" fill="none" stroke-linecap="round"/>
  <circle cx="46" cy="55" r="5" fill="#111827"/>
  <circle cx="74" cy="55" r="5" fill="#111827"/>
  <path d="M58 66c1 3 3 5 4 5s3-2 4-5" stroke="#111827" stroke-width="4" stroke-linecap="round" fill="none"/>
  <rect x="54" y="30" width="28" height="10" rx="3" fill="#87cefa" transform="rotate(-18 60 32)"/>
  <rect x="58" y="26" width="16" height="8" rx="3" fill="#a5d8ff" transform="rotate(-18 60 32)"/>
</svg>
